# xmcd
# 
# Track frame offsets:
#     150
#     12985
#     24772
#     37992
#     50570
#     63042
#     75050
#     86227
#     95535
#     106997
#     118815
#     130385
#     140982
#     151100
#     163322
#     175400
# 
# Disc length: 2482
# 
# Revision: 5
# Processed by: cddbd v1.5.2PL0 Copyright (c) Steve Scherf et al.
# Submitted via: fre:ac v1.0.27
# 
DISCID=cb09b010
DTITLE=Various Artist - All Time Country Greats
DYEAR=1996
DGENRE=Country
TTITLE0=Charley Pride - Crystal Chandeliers
TTITLE1=Jim Reeves - Welcome To My World
TTITLE2=Dolly Parton - I Will Always Love You
TTITLE3=Waylon Jennings - I'm A Ramblin' Man
TTITLE4=Hank Snow - I'm Movin' On
TTITLE5=Willie Nelson - Funny How Time Slips Away
TTITLE6=Hank Locklin - Send Me The Pillow You Dream On
TTITLE7=Chet Atkins - Yakety Axe
TTITLE8=Don Gibson - Sea Of Heartbreak
TTITLE9=Skeeter Davis - The End Of The World
TTITLE10=George Hamilton IV - She's A Little Bit Country
TTITLE11=Connie Smith - Once A Day
TTITLE12=Charlie Pride - Is Anybody Going To San Antone
TTITLE13=Bobby Bare - Ruby, Don't Take Your Love To Town
TTITLE14=Eddy Arnold - Make The World Go Away
TTITLE15=Porter Wagoner - Green Green Grass Of Home
EXTD=
EXTT0=
EXTT1=
EXTT2=
EXTT3=
EXTT4=
EXTT5=
EXTT6=
EXTT7=
EXTT8=
EXTT9=
EXTT10=
EXTT11=
EXTT12=
EXTT13=
EXTT14=
EXTT15=
PLAYORDER=
